<svg xmlns="http://www.w3.org/2000/svg" viewBox="0 0 443.8 186.2"><style type="text/css">  
	.st0{fill:#E7236E;}
	.st1{fill-rule:evenodd;clip-rule:evenodd;fill:#E7236E;}
</style><path class="st0" d="M55.3 127.3c4.8-2 8.9-4.8 12.1-8.2 3.3-3.4 5.8-7.3 7.6-11.8 1.7-4.5 2.6-9.1 2.6-14 0-4.9-0.9-9.5-2.6-14 -1.7-4.5-4.2-8.4-7.6-11.8 -3.3-3.4-7.3-6.1-12.1-8.2 -4.8-2-10.3-3-16.5-3s-11.7 1-16.5 3c-4.8 2-8.9 4.8-12.2 8.2s-5.8 7.3-7.5 11.8C0.9 83.8 0 88.5 0 93.4c0 4.9 0.9 9.5 2.5 14 1.7 4.5 4.2 8.4 7.5 11.8s7.4 6.1 12.2 8.2c4.8 2 10.3 3 16.5 3S50.5 129.4 55.3 127.3zM33.2 105.9c-1.6-0.8-3-1.8-4.2-3 -1.1-1.2-2-2.7-2.6-4.3 -0.6-1.7-0.9-3.4-0.9-5.2 0-1.8 0.3-3.5 0.9-5.2 0.6-1.7 1.5-3.1 2.6-4.3 1.1-1.2 2.5-2.2 4.2-3 1.6-0.8 3.5-1.2 5.6-1.2 2.1 0 4 0.4 5.7 1.2 1.6 0.8 3 1.8 4.1 3 1.1 1.2 2 2.7 2.6 4.3 0.6 1.7 0.9 3.4 0.9 5.2 0 1.8-0.3 3.5-0.9 5.2 -0.6 1.7-1.5 3.1-2.6 4.3 -1.1 1.2-2.5 2.2-4.1 3 -1.6 0.8-3.5 1.2-5.7 1.2C36.7 107.1 34.8 106.7 33.2 105.9z"/><path class="st0" d="M108.6 58.4H83.1v70h25.5V93.1l20.4 35.3h25.5v-70H129v37.3L108.6 58.4z"/><path class="st0" d="M210.9 76.7V58.4h-47.4v70h47.4v-18.3H189v-7.8h21.9V85H189v-8.3H210.9z"/><path class="st0" d="M266.9 78.7V58.4h-47.4v70H245v-18.1h21.9V90.9H245V78.7H266.9z"/><path class="st0" d="M348 128.4l-27.5-70h-28.6l-26.6 70H293l2.1-7.7h22.1l2.1 7.7H348zM312.4 103.2h-12.5l6.3-22.9L312.4 103.2z"/><path class="st0" d="M377.5 106.9V58.4H352v70h42.1v-21.5H377.5z"/><path class="st0" d="M425.6 106.9V58.4h-25.5v70h42.1v-21.5H425.6z"/><path class="st1" d="M0.8 156v-20h443v20H0.8z"/><path class="st1" d="M0.8 51V31h443v20H0.8z"/><path class="st0" d="M162.4 22.4l2.8-16c0-0.2 0.2-0.2 0.3 0l2.9 16c0.1 0.3 0.3 0.5 0.6 0.5h2.7c0.3 0 0.5-0.2 0.6-0.5l4.5-21.3c0.1-0.3-0.1-0.6-0.6-0.6h-1.7c-0.3 0-0.5 0.1-0.6 0.5l-3.4 16.4c0 0.1-0.1 0.2-0.2 0.2h-0.1c-0.1 0-0.2-0.1-0.2-0.2L167 1c-0.1-0.3-0.3-0.5-0.6-0.5h-2.2c-0.3 0-0.5 0.2-0.6 0.5l-2.8 16.4c0 0.1-0.1 0.2-0.2 0.2h-0.1c-0.1 0-0.2-0.1-0.2-0.2L157.2 1c-0.1-0.4-0.3-0.5-0.6-0.5h-1.7c-0.5 0-0.7 0.3-0.6 0.6l4.3 21.3c0.1 0.3 0.3 0.5 0.6 0.5h2.7C162.1 22.9 162.3 22.8 162.4 22.4z"/><path class="st0" d="M183.8 14c0.4 0 0.5 0.2 0.6 0.4l3.8 7.9c0.2 0.4 0.4 0.6 0.9 0.6h1.8c0.6 0 0.8-0.5 0.6-1l-3.8-7.8c-0.3-0.6-0.1-0.9 0.5-1.2 2-1.2 3.3-3.3 3.3-5.7 0-3.7-3-6.7-6.7-6.7h-5.8c-0.4 0-0.6 0.3-0.6 0.6v21.1c0 0.4 0.3 0.6 0.6 0.6h1.8c0.4 0 0.6-0.3 0.6-0.6v-8c0-0.2 0.1-0.3 0.3-0.3H183.8zM184.8 3.6c2 0 3.7 1.7 3.7 3.7s-1.7 3.7-3.7 3.7h-3c-0.2 0-0.3-0.1-0.3-0.3V3.9c0-0.2 0.1-0.3 0.3-0.3H184.8z"/><path class="st0" d="M197.5 13.3c0-0.2 0.1-0.3 0.3-0.3h7.3c0.4 0 0.6-0.3 0.6-0.6v-1.8c0-0.4-0.3-0.6-0.6-0.6h-7.3c-0.2 0-0.3-0.1-0.3-0.3V3.9c0-0.2 0.1-0.3 0.3-0.3h7.6c0.4 0 0.6-0.3 0.6-0.6V1.2c0-0.4-0.3-0.6-0.6-0.6h-10.3c-0.4 0-0.6 0.3-0.6 0.6v21.1c0 0.4 0.3 0.6 0.6 0.6h10.4c0.4 0 0.6-0.3 0.6-0.6v-1.8c0-0.4-0.3-0.6-0.6-0.6h-7.7c-0.2 0-0.3-0.1-0.3-0.3V13.3z"/><path class="st0" d="M219.1 16.5c0 2-1.7 3.6-4.1 3.6 -2.4 0-4.1-1.5-4.1-3.6V16c0-0.4-0.3-0.6-0.6-0.6h-1.8c-0.4 0-0.6 0.3-0.6 0.6v0.5c0 3.6 3.1 6.7 7.2 6.7 3.7 0 7.2-2.6 7.2-6.7 0-3.7-2.3-5.7-5.9-6.6 -2.1-0.5-4.8-0.8-4.8-3.6 0-1.8 1.4-3 3.5-3 1.6 0 3.5 0.8 3.5 3v0.4c0 0.4 0.3 0.6 0.6 0.6h1.8c0.4 0 0.6-0.3 0.6-0.6V6.3c0-3.3-2.8-6-6.6-6 -3.3 0-6.6 2.2-6.6 6 0 3.5 2.2 5.4 5.3 6.1C216.9 13.1 219.1 13.5 219.1 16.5z"/><path class="st0" d="M231.1 3.6h4.2c0.4 0 0.6-0.3 0.6-0.6V1.2c0-0.4-0.3-0.6-0.6-0.6h-12.2c-0.4 0-0.6 0.3-0.6 0.6v1.8c0 0.4 0.3 0.6 0.6 0.6h4.3c0.2 0 0.3 0.1 0.3 0.3v18.4c0 0.4 0.3 0.6 0.6 0.6h1.8c0.4 0 0.6-0.3 0.6-0.6V3.9C230.8 3.7 230.9 3.6 231.1 3.6z"/><path class="st0" d="M240.5 1.2c0-0.4-0.3-0.6-0.6-0.6h-1.8c-0.4 0-0.6 0.3-0.6 0.6v21.1c0 0.4 0.3 0.6 0.6 0.6h9.9c0.4 0 0.6-0.3 0.6-0.6v-1.8c0-0.4-0.3-0.6-0.6-0.6h-7.2c-0.2 0-0.3-0.1-0.3-0.3V1.2z"/><path class="st0" d="M253.4 1.2c0-0.4-0.3-0.6-0.6-0.6H251c-0.4 0-0.6 0.3-0.6 0.6v21.1c0 0.4 0.3 0.6 0.6 0.6h1.8c0.4 0 0.6-0.3 0.6-0.6V1.2z"/><path class="st0" d="M269.7 22.9c0.4 0 0.6-0.3 0.6-0.6V1.2c0-0.4-0.3-0.6-0.6-0.6h-1.6c-0.4 0-0.6 0.3-0.6 0.6v15.6c0 0.2-0.2 0.2-0.3 0.1l-6.3-15.8c-0.2-0.4-0.3-0.5-0.7-0.5h-2.7c-0.4 0-0.6 0.3-0.6 0.6v21.1c0 0.4 0.3 0.6 0.6 0.6h1.6c0.4 0 0.6-0.3 0.6-0.6V6.6c0-0.2 0.2-0.2 0.3-0.1l6.3 15.8c0.2 0.4 0.3 0.5 0.7 0.5H269.7z"/><path class="st0" d="M284.9 16.5c0 2.5-2 3.6-4.2 3.6 -2.5 0-3.9-1.8-4.2-3.6 -0.3-2.6-0.3-7 0-9.6 0.3-2.3 2.1-3.6 4.2-3.6 2.5 0 4.2 1.7 4.2 3.6v0.4c0 0.4 0.3 0.6 0.6 0.6h1.8c0.4 0 0.6-0.3 0.6-0.6V6.9c0-4.2-3.4-6.7-7.2-6.7 -4.2 0-6.8 3.2-7.2 6.7 -0.3 2.6-0.3 7 0 9.6 0.5 4.1 3.4 6.7 7.2 6.7 4.2 0 7.2-2.9 7.2-6.7v-5.4c0-0.4-0.3-0.6-0.6-0.6h-5.6c-0.4 0-0.6 0.3-0.6 0.6v1.8c0 0.4 0.3 0.6 0.6 0.6h2.9c0.2 0 0.3 0.1 0.3 0.3V16.5z"/><path class="st0" d="M135.2 164.2c0-0.4-0.3-0.6-0.6-0.6h-1.8c-0.4 0-0.6 0.3-0.6 0.6v15.4c0 2-1.7 3.6-4.2 3.6 -2.1 0-4.2-1.1-4.2-3.6v-15.4c0-0.4-0.3-0.6-0.6-0.6h-1.8c-0.4 0-0.6 0.3-0.6 0.6v15.4c0 3.8 3.1 6.7 7.2 6.7 3.9 0 7.2-2.8 7.2-6.7V164.2z"/><path class="st0" d="M151.1 185.9c0.4 0 0.6-0.3 0.6-0.6v-21.1c0-0.4-0.3-0.6-0.6-0.6h-1.6c-0.4 0-0.6 0.3-0.6 0.6v15.6c0 0.2-0.2 0.2-0.3 0.1l-6.3-15.8c-0.2-0.4-0.3-0.5-0.7-0.5H139c-0.4 0-0.6 0.3-0.6 0.6v21.1c0 0.4 0.3 0.6 0.6 0.6h1.6c0.4 0 0.6-0.3 0.6-0.6v-15.7c0-0.2 0.2-0.2 0.3-0.1l6.3 15.8c0.2 0.4 0.3 0.5 0.7 0.5H151.1z"/><path class="st0" d="M158.3 164.2c0-0.4-0.3-0.6-0.6-0.6h-1.8c-0.4 0-0.6 0.3-0.6 0.6v21.1c0 0.4 0.3 0.6 0.6 0.6h1.8c0.4 0 0.6-0.3 0.6-0.6V164.2z"/><path class="st0" d="M168.4 166.6h4.2c0.4 0 0.6-0.3 0.6-0.6v-1.8c0-0.4-0.3-0.6-0.6-0.6h-12.2c-0.4 0-0.6 0.3-0.6 0.6v1.8c0 0.4 0.3 0.6 0.6 0.6h4.3c0.2 0 0.3 0.1 0.3 0.3v18.4c0 0.4 0.3 0.6 0.6 0.6h1.8c0.4 0 0.6-0.3 0.6-0.6v-18.4C168.1 166.7 168.2 166.6 168.4 166.6z"/><path class="st0" d="M177.8 176.3c0-0.2 0.1-0.3 0.3-0.3h7.3c0.4 0 0.6-0.3 0.6-0.6v-1.8c0-0.4-0.3-0.6-0.6-0.6h-7.3c-0.2 0-0.3-0.1-0.3-0.3v-5.8c0-0.2 0.1-0.3 0.3-0.3h7.6c0.4 0 0.6-0.3 0.6-0.6v-1.8c0-0.4-0.3-0.6-0.6-0.6h-10.3c-0.4 0-0.6 0.3-0.6 0.6v21.1c0 0.4 0.3 0.6 0.6 0.6h10.4c0.4 0 0.6-0.3 0.6-0.6v-1.8c0-0.4-0.3-0.6-0.6-0.6h-7.7c-0.2 0-0.3-0.1-0.3-0.3V176.3z"/><path class="st0" d="M195.9 166.6c2 0 3.5 1.8 3.7 3.7 0.3 2.6 0.3 6.4 0 9 -0.2 1.9-1.7 3.7-3.7 3.7h-3.4c-0.2 0-0.3-0.1-0.3-0.3v-15.7c0-0.2 0.1-0.3 0.3-0.3H195.9zM189.8 163.5c-0.4 0-0.6 0.3-0.6 0.6v21.1c0 0.4 0.3 0.6 0.6 0.6h6.1c3.7 0 6.3-3 6.7-6.7 0.3-2.6 0.3-6.4 0-9 -0.4-3.7-3-6.7-6.7-6.7H189.8z"/><path class="st0" d="M222.5 185.6c0.1 0.1 0.2 0.3 0.7 0.3h2c0.7 0 0.9-0.8 0.6-1.2l-8.2-10c-0.3-0.3-0.2-0.5 0-0.8l7.3-9.3c0.4-0.5 0.1-1.2-0.5-1.2h-1.8c-0.5 0-0.6 0.2-0.7 0.3l-6.2 8.1c-0.1 0.1-0.3 0.1-0.3-0.1v-7.7c0-0.4-0.3-0.6-0.6-0.6h-1.8c-0.4 0-0.6 0.3-0.6 0.6v21.1c0 0.4 0.3 0.6 0.6 0.6h1.8c0.4 0 0.6-0.3 0.6-0.6v-8.1c0-0.2 0.2-0.2 0.3-0.1L222.5 185.6z"/><path class="st0" d="M230.8 164.2c0-0.4-0.3-0.6-0.6-0.6h-1.8c-0.4 0-0.6 0.3-0.6 0.6v21.1c0 0.4 0.3 0.6 0.6 0.6h1.8c0.4 0 0.6-0.3 0.6-0.6V164.2z"/><path class="st0" d="M247.2 185.9c0.4 0 0.6-0.3 0.6-0.6v-21.1c0-0.4-0.3-0.6-0.6-0.6h-1.6c-0.4 0-0.6 0.3-0.6 0.6v15.6c0 0.2-0.2 0.2-0.3 0.1l-6.3-15.8c-0.2-0.4-0.3-0.5-0.7-0.5H235c-0.4 0-0.6 0.3-0.6 0.6v21.1c0 0.4 0.3 0.6 0.6 0.6h1.6c0.4 0 0.6-0.3 0.6-0.6v-15.7c0-0.2 0.2-0.2 0.3-0.1l6.3 15.8c0.2 0.4 0.3 0.5 0.7 0.5H247.2z"/><path class="st0" d="M262.3 179.5c0 2.5-2 3.6-4.2 3.6 -2.5 0-3.9-1.8-4.2-3.6 -0.3-2.6-0.3-7 0-9.6 0.3-2.3 2.1-3.6 4.2-3.6 2.5 0 4.2 1.7 4.2 3.6v0.4c0 0.4 0.3 0.6 0.6 0.6h1.8c0.4 0 0.6-0.3 0.6-0.6v-0.4c0-4.2-3.4-6.7-7.2-6.7 -4.2 0-6.8 3.2-7.2 6.7 -0.3 2.6-0.3 7 0 9.6 0.5 4.1 3.4 6.7 7.2 6.7 4.2 0 7.2-2.9 7.2-6.7v-5.4c0-0.4-0.3-0.6-0.6-0.6h-5.6c-0.4 0-0.6 0.3-0.6 0.6v1.8c0 0.4 0.3 0.6 0.6 0.6h2.9c0.2 0 0.3 0.1 0.3 0.3V179.5z"/><path class="st0" d="M274.9 166.6c2 0 3.5 1.8 3.7 3.7 0.3 2.6 0.3 6.4 0 9 -0.2 1.9-1.7 3.7-3.7 3.7h-3.4c-0.2 0-0.3-0.1-0.3-0.3v-15.7c0-0.2 0.1-0.3 0.3-0.3H274.9zM268.8 163.5c-0.4 0-0.6 0.3-0.6 0.6v21.1c0 0.4 0.3 0.6 0.6 0.6h6.1c3.7 0 6.3-3 6.7-6.7 0.3-2.6 0.3-6.4 0-9 -0.4-3.7-3-6.7-6.7-6.7H268.8z"/><path class="st0" d="M291.5 183.1c-2.5 0-3.9-1.8-4.2-3.6 -0.3-2.6-0.3-7 0-9.6 0.3-2.3 2.1-3.6 4.2-3.6 2.5 0 3.9 1.7 4.2 3.6 0.4 2.6 0.4 7 0 9.6C295.4 181.8 293.7 183.1 291.5 183.1zM291.5 163.3c-4.2 0-6.8 3.2-7.2 6.7 -0.3 2.6-0.3 7 0 9.6 0.5 4.1 3.4 6.7 7.2 6.7 4.2 0 6.8-3.1 7.2-6.7 0.3-2.6 0.3-7 0-9.6C298.2 165.8 295.4 163.3 291.5 163.3z"/><path class="st0" d="M306.4 164.1c-0.1-0.4-0.3-0.5-0.7-0.5h-3.3c-0.4 0-0.6 0.3-0.6 0.6v21.1c0 0.4 0.3 0.6 0.6 0.6h1.7c0.4 0 0.6-0.3 0.6-0.6v-16c0-0.2 0.2-0.2 0.3-0.1l4.6 16.2c0.1 0.4 0.3 0.5 0.7 0.5h1.3c0.4 0 0.5-0.2 0.7-0.5l4.6-16.2c0-0.1 0.3-0.1 0.3 0.1v16c0 0.4 0.3 0.6 0.6 0.6h1.7c0.4 0 0.6-0.3 0.6-0.6v-21.1c0-0.4-0.3-0.6-0.6-0.6h-3.3c-0.4 0-0.6 0.2-0.7 0.5l-4.4 15.8c-0.1 0.2-0.3 0.2-0.3 0L306.4 164.1z"/><path class="st1" d="M309.8 0l4 7.2 8 1.6 -5.6 6 1 8.2 -7.4-3.5 -7.4 3.5 1-8.2 -5.6-6 8-1.6L309.8 0"/><path class="st1" d="M343.8 162l4 7.2 8 1.6 -5.6 6 1 8.2 -7.4-3.5 -7.4 3.5 1-8.2 -5.6-6 8-1.6L343.8 162"/><path class="st1" d="M131.8 0l4 7.2 8 1.6 -5.6 6 1 8.2 -7.4-3.5 -7.4 3.5 1-8.2 -5.6-6 8-1.6L131.8 0"/><path class="st1" d="M96.8 162l4 7.2 8 1.6 -5.6 6 1 8.2 -7.4-3.5 -7.4 3.5 1-8.2 -5.6-6 8-1.6L96.8 162"/></svg>